<?xml version="1.0" encoding="UTF-8" standalone="no"?>
<!DOCTYPE svg PUBLIC "-//W3C//DTD SVG 1.1//EN" "http://www.w3.org/Graphics/SVG/1.1/DTD/svg11.dtd">
<svg viewBox="0 0 30 30" width="30px" height="30px" version="1.1" xmlns="http://www.w3.org/2000/svg" xmlns:xlink="http://www.w3.org/1999/xlink" xml:space="preserve" xmlns:serif="http://www.serif.com/" style="fill-rule:evenodd;clip-rule:evenodd;stroke-linejoin:round;stroke-miterlimit:2;">
    <g transform="matrix(0.0275,0,0,0.0275,4,4)">
        <path d="M737.5,0L62.5,0C27.969,0 0,27.969 0,62.5L0,737.5C0,772.031 27.969,800 62.5,800L737.5,800C772.031,800 800,772.031 800,737.5L800,62.5C800,27.969 772.031,0 737.5,0ZM290.781,583.906C281.094,593.594 267.813,599.375 253.125,599.375C238.438,599.375 225.313,593.438 215.625,583.906C205.938,574.219 200,561.094 200,546.563C200,531.875 205.938,518.75 215.625,509.063C225.313,499.375 238.438,493.438 253.125,493.438C267.813,493.438 281.094,499.375 290.625,509.063C300.313,518.75 306.25,531.875 306.25,546.563C306.25,561.25 300.313,574.375 290.781,583.906ZM387.188,600C387.031,549.844 367.656,502.656 332.344,467.344C297.031,432.031 249.844,412.344 200,412.344L200,335.938C272.813,335.938 338.594,365.625 386.406,413.438C434.219,461.25 463.75,527.188 463.906,600L387.188,600ZM523.438,600C523.281,421.563 378.438,276.406 200.156,276.406L200.156,200C310.469,200 410.313,244.844 482.656,317.344C555,389.844 599.844,489.688 600,600L523.438,600Z" style="fill-rule:nonzero;"/>
    </g>
</svg>
